HIERARCHY
ROOT Hips
{
  OFFSET -35.4901 99.2528 17.4586
  CHANNELS 6 Xposition Yposition Zposition Zrotation Xrotation Yrotation
  JOINT LeftUpLeg
  {
    OFFSET 8.64259 1.95398 -2.38835
    CHANNELS 3 Zrotation Xrotation Yrotation
    JOINT LeftLeg
    {
      OFFSET 43.7702 0 0
      CHANNELS 3 Zrotation Xrotation Yrotation
      JOINT LeftFoot
      {
        OFFSET 40.6238 0 0
        CHANNELS 3 Zrotation Xrotation Yrotation
        JOINT LeftToeBase
        {
          OFFSET 12.7242 0 0
          CHANNELS 3 Zrotation Xrotation Yrotation
          End Site
          {
            OFFSET 0 0 0
          }
        }
      }
    }
  }
  JOINT RightUpLeg
  {
    OFFSET -8.2249 1.95398 -2.59336
    CHANNELS 3 Zrotation Xrotation Yrotation
    JOINT RightLeg
    {
      OFFSET 43.5653 0 0
      CHANNELS 3 Zrotation Xrotation Yrotation
      JOINT RightFoot
      {
        OFFSET 40.6238 0 0
        CHANNELS 3 Zrotation Xrotation Yrotation
        JOINT RightToeBase
        {
          OFFSET 12.7242 0 0
          CHANNELS 3 Zrotation Xrotation Yrotation
          End Site
          {
            OFFSET 0 0 0
          }
        }
      }
    }
  }
  JOINT Spine
  {
    OFFSET 0.165834 0.87714 6.61349
    CHANNELS 3 Zrotation Xrotation Yrotation
    JOINT Spine1
    {
      OFFSET 7.38963 1.71661e-005 0
      CHANNELS 3 Zrotation Xrotation Yrotation
      JOINT Spine2
      {
        OFFSET 11.9445 1.14441e-005 0
        CHANNELS 3 Zrotation Xrotation Yrotation
        JOINT Spine3
        {
          OFFSET 14.7254 4.19617e-005 0
          CHANNELS 3 Zrotation Xrotation Yrotation
          JOINT Spine4
          {
            OFFSET 10.9679 0 0
            CHANNELS 3 Zrotation Xrotation Yrotation
            JOINT RightShoulder
            {
              OFFSET 2.46616 -1.6653 3.69651
              CHANNELS 3 Zrotation Xrotation Yrotation
              JOINT RightArm
              {
                OFFSET 13.0012 0 0
                CHANNELS 3 Zrotation Xrotation Yrotation
                JOINT RightForeArm
                {
                  OFFSET 28.7848 1.52588e-005 0
                  CHANNELS 3 Zrotation Xrotation Yrotation
                  JOINT RightHand
                  {
                    OFFSET 26.5688 1.52588e-005 0
                    CHANNELS 3 Zrotation Xrotation Yrotation
                    End Site
                    {
                      OFFSET 0 0 0
                    }
                  }
                }
              }
            }
            JOINT LeftShoulder
            {
              OFFSET 2.38034 -1.29275 -3.7523
              CHANNELS 3 Zrotation Xrotation Yrotation
              JOINT LeftArm
              {
                OFFSET 16.3182 6.10351e-005 0
                CHANNELS 3 Zrotation Xrotation Yrotation
                JOINT LeftForeArm
                {
                  OFFSET 27.0901 0 0
                  CHANNELS 3 Zrotation Xrotation Yrotation
                  JOINT LeftHand
                  {
                    OFFSET 24.5451 1.52588e-005 0
                    CHANNELS 3 Zrotation Xrotation Yrotation
                    End Site
                    {
                      OFFSET 0 0 0
                    }
                  }
                }
              }
            }
            JOINT Neck
            {
              OFFSET 5.0226 -0.0266342 0
              CHANNELS 3 Zrotation Xrotation Yrotation
              JOINT Head
              {
                OFFSET 6.69364 2.86102e-005 0
                CHANNELS 3 Zrotation Xrotation Yrotation
                End Site
                {
                  OFFSET 0 0 0
                }
              }
            }
          }
        }
      }
    }
  }
}
MOTION
Frames:	9
Frame Time:	0.0416667
1.67962 95.5968 -90.4797 -160.033 -80.0948 -162.621 179.803 15.4573 87.0872 -7.89601 -1.59864 -2.06725 62.6572 2.6601 -4.16441 17.1665 -3.70707 5.94502 167.444 -18.2741 84.0895 -20.3374 -20.5296 -2.18292 84.5736 -11.7821 -3.00406 26.2748 -2.012 5.17763 1.13651 8.24312 -89.7095 10.385 2.39713 0.36765 -1.28381 2.411 0.261726 -23.8337 2.17578 1.0714 -3.82103 2.17578 1.0714 87.7773 -29.8784 -111.188 31.3234 -5.18499 -16.1368 -2.61635 -30.3221 -22.5243 -25.9346 0.0265228 -8.82067 -83.5222 -56.6439 89.1231 -22.671 9.10407 0.593475 3.04041 9.02452 -7.2475 -2.31038 -0.0925503 -4.66107 -1.47036 -2.73286 1.95436 -0.112456 -3.02019 -4.41961 
2.23445 95.7046 -82.6849 -145.486 -78.9459 -149.021 -179.298 14.6486 85.8828 -12.9157 -0.010683 -2.4505 57.3234 0.463204 -2.91817 12.7047 -3.49284 5.62061 165.797 -20.5188 80.5598 -22.2591 -24.0514 -3.80519 78.1182 -9.26882 -3.84336 36.1784 -2.25014 6.31592 1.32276 8.08586 -89.5096 10.6953 2.86017 0.712676 -0.972638 2.88877 0.585996 -23.5268 2.51369 1.53977 -3.51418 2.5137 1.53977 87.478 -29.9118 -111.758 33.5376 -7.51191 -14.8064 0.0782732 -29.4259 -18.8268 -25.3641 0.0670128 -8.95407 -82.7861 -57.3406 90.2134 -23.3057 6.62418 1.54614 4.17579 8.07335 -7.85554 -3.38714 -0.0882695 -5.06075 -1.77136 -2.46312 0.8966 -1.14575 -2.57834 -4.09587 
2.74606 96.0537 -75.1368 -143.169 -78.3545 -148.506 -178.071 14.636 83.5041 -22.6869 1.28049 -3.43609 63.6508 2.19832 -2.84797 6.37814 -2.78616 4.70604 166.183 -17.8806 78.3436 -32.9579 -23.9627 -6.53232 68.8646 -4.53165 -3.61834 44.6654 -3.42089 11.7799 1.22842 7.96296 -89.2393 10.933 2.79766 1.24858 -0.735388 2.8499 1.12416 -23.2833 2.2931 2.03187 -3.2706 2.2931 2.03187 87.8229 -29.6582 -111.197 37.2477 -10.1091 -12.4763 3.02509 -29.1951 -14.7677 -22.9084 -0.0244793 -8.81498 -83.0676 -57.069 89.798 -22.9048 6.86098 0.162035 3.92226 7.91424 -7.11324 -3.10277 -0.0854271 -5.22308 -2.5362 -2.38799 0.122954 -2.7614 -2.35203 -4.46746 
3.09649 96.638 -68.9359 -140.928 -77.1721 -147.415 -178.037 11.0887 81.9326 -25.4806 0.761532 -4.15707 68.2578 3.89373 -1.51195 7.05683 -2.63214 4.52664 169.654 -10.1377 77.5128 -50.1445 -23.4916 -7.37105 58.889 -0.0760915 -1.22937 33.1211 -3.66669 10.6818 1.12874 8.01052 -89.1347 10.835 2.64714 1.47379 -0.833947 2.70944 1.3558 -23.3771 2.0819 2.20129 -3.3644 2.08191 2.20129 87.7401 -29.3451 -111.501 39.6633 -11.5017 -9.41616 4.90726 -27.6228 -12.6565 -22.6203 0.0492656 -9.06555 -83.2732 -57.7561 89.5706 -18.3246 10.6677 -7.5547 1.21168 11.9565 -2.78126 -2.76661 -0.0853209 -4.94941 -2.62755 -1.9657 0.340593 -3.48744 -1.93262 -4.34915 
3.08482 96.7577 -63.787 -139.537 -76.0724 -146.434 -177.942 7.973 81.4062 -27.7635 1.00143 -5.10662 72.184 5.09742 0.0871435 8.35958 -2.01394 3.8129 174.076 -1.62933 78.354 -62.8665 -20.9616 -6.69731 57.453 0.336606 0.0996772 25.0756 -2.88325 7.50552 0.906461 8.129 -89.1327 10.5994 2.20421 1.52512 -1.07048 2.26919 1.4266 -23.6077 1.64405 2.11701 -3.59502 1.64405 2.117 87.9767 -29.3889 -111.014 40.8394 -11.8644 -6.90524 4.68057 -30.0899 -13.479 -23.959 -0.214508 -7.70569 -83.6569 -56.9067 88.9606 -16.0835 10.0998 -14.887 1.13383 14.0799 -1.45525 -2.11903 -0.090406 -5.34357 -3.3796 -0.940264 0.43237 -2.91534 -0.950277 -3.83453 
2.8594 97.0637 -59.137 -139.829 -75.387 -145.746 -177.945 4.54018 81.9836 -28.6576 0.474675 -4.91953 75.172 5.87009 -0.0557357 9.75966 -1.77922 3.50529 176.92 5.56945 80.6782 -66.1594 -16.9774 -5.75767 67.8624 -4.45427 -1.19899 25.231 -2.87905 7.57438 0.581379 8.24715 -89.2499 10.3685 1.50172 1.35866 -1.30221 1.56006 1.29125 -23.8354 1.02403 1.74711 -3.82275 1.02403 1.74711 88.1752 -30.8462 -109.995 40.181 -11.8793 -5.43792 3.99893 -27.0811 -14.6574 -23.1857 -0.115726 -7.87621 -84.7992 -54.0619 87.0345 -13.3979 11.626 -19.8771 1.06368 10.2059 -4.52108 -0.977652 -0.107503 -5.62532 -4.17119 0.264173 -1.51996 -2.66923 0.425807 -1.01284 
2.52127 97.5421 -54.6766 -139.638 -75.7441 -143.64 -178.471 1.46622 82.787 -27.9408 0.174338 -3.01952 77.4356 5.9985 -0.460952 10.4938 -2.16952 3.96438 177.945 11.9022 84.1846 -59.7138 -12.0607 -4.9097 71.852 -6.51786 -1.62122 24.5145 -1.76045 4.83045 0.215435 8.24352 -89.5443 10.3838 0.637943 0.849582 -1.28731 0.674716 0.820674 -23.8207 0.353126 1.00202 -3.80808 0.353127 1.00202 88.4177 -31.1844 -109.383 39.937 -10.6542 -3.69478 3.53637 -28.5712 -15.3948 -22.9458 -0.0525904 -8.52691 -84.777 -52.303 86.8607 -12.4455 10.4012 -22.9375 3.20912 8.74997 -10.5065 0.968466 -0.105154 -4.87087 -5.67838 1.40128 -1.9725 -2.6813 1.56886 0.792731 
1.81284 97.8835 -50.3058 -141.475 -76.7845 -143.895 -178.336 -1.79244 84.1519 -26.3013 1.12623 -1.87485 78.7308 6.3332 -0.214746 12.4573 -2.24411 4.0322 177.373 15.678 87.3432 -45.5831 -9.93602 -3.90798 70.7627 -6.22667 -1.74574 24.966 -0.977867 2.90816 -0.119158 8.24131 -89.7974 10.3913 -0.14449 0.415662 -1.27974 -0.12606 0.421608 -23.8146 -0.262734 0.35302 -3.80196 -0.26274 0.353019 88.5441 -31.4087 -109.048 39.9724 -10.2183 -1.42388 2.85674 -25.7545 -16.5044 -23.5598 -0.0154263 -8.18279 -85.1343 -49.6518 85.9895 -14.1678 7.52989 -27.1023 5.83978 10.6466 -12.5882 0.0488176 -0.152688 -7.22408 -6.61697 2.1072 -2.35202 -3.08596 2.27549 1.88256 
1.04294 97.7584 -45.8012 -141.606 -78.3638 -143.318 -177.698 -4.13877 85.3092 -25.2092 3.05657 -1.72132 80.6759 7.03664 -0.230275 12.3344 -2.19643 3.9736 176.21 16.539 89.1383 -25.199 -8.05742 -2.16111 63.9034 -3.78842 -0.288225 27.9488 -1.28725 3.52173 -0.310788 8.19655 -89.9137 10.481 -0.579437 0.222719 -1.18979 -0.569069 0.247999 -23.726 -0.619586 0.0382696 -3.71333 -0.619581 0.0382689 88.5129 -32.4265 -108.699 39.7744 -8.57975 0.0368797 3.60702 -26.6235 -16.0922 -23.7623 0.00363589 -8.39 -85.5399 -47.2789 85.0357 -15.8751 6.08587 -30.9119 7.43002 10.2341 -14.9992 1.48791 -0.199078 -7.59194 -6.65127 2.22074 -4.15542 -3.87128 2.49842 3.53797 
